<svg width="100" height="100" viewBox="0 0 100 100" fill="none" xmlns="http://www.w3.org/2000/svg">
  <!-- 2-Liter Bottle - SF Symbols Style -->
  <g stroke="currentColor" stroke-width="3" stroke-linecap="round" stroke-linejoin="round" fill="none">
    <!-- Cap -->
    <rect x="43" y="6" width="14" height="8" rx="2"/>
    <!-- Neck ring -->
    <ellipse cx="50" cy="16" rx="8" ry="2"/>
    <!-- Neck -->
    <path d="M44 16 L44 22 L38 30"/>
    <path d="M56 16 L56 22 L62 30"/>
    <!-- Body (larger, rounder) -->
    <path d="M38 30 C28 38, 26 48, 26 55 L26 78 C26 86, 34 90, 50 90 C66 90, 74 86, 74 78 L74 55 C74 48, 72 38, 62 30"/>
    <!-- Label area -->
    <path d="M28 50 L72 50"/>
    <path d="M28 72 L72 72"/>
    <!-- Base indent -->
    <path d="M34 88 Q50 82, 66 88"/>
  </g>
</svg>
