<svg width="100" height="100" viewBox="0 0 100 100" fill="none" xmlns="http://www.w3.org/2000/svg">
  <!-- Coke Zero Caffeine Free - SF Symbols Style with zero and moon -->
  <g stroke="currentColor" stroke-width="3" stroke-linecap="round" stroke-linejoin="round" fill="none">
    <!-- Can body -->
    <path d="M30 25 C30 20, 35 15, 50 15 C65 15, 70 20, 70 25 L70 75 C70 80, 65 85, 50 85 C35 85, 30 80, 30 75 Z"/>
    <!-- Top ellipse -->
    <ellipse cx="50" cy="25" rx="20" ry="7"/>
    <!-- Pull tab area -->
    <ellipse cx="50" cy="22" rx="12" ry="4"/>
    <!-- Pull tab -->
    <path d="M44 22 L50 18 L56 22"/>
    <circle cx="50" cy="21" r="2"/>
    
    <!-- Bold "0" zero -->
    <ellipse cx="50" cy="58" rx="12" ry="16" stroke-width="4"/>
    <ellipse cx="50" cy="58" rx="5" ry="8" stroke-width="2"/>
    
    <!-- Crescent moon for caffeine free (top right area) -->
    <path d="M58 36 A 6 6 0 1 1 58 48 A 4.5 4.5 0 1 0 58 36" stroke-width="2" fill="none"/>
  </g>
</svg>
