<svg width="100" height="100" viewBox="0 0 100 100" fill="none" xmlns="http://www.w3.org/2000/svg">
  <!-- Fountain Drink Cup - SF Symbols Style -->
  <g stroke="currentColor" stroke-width="3" stroke-linecap="round" stroke-linejoin="round" fill="none">
    <!-- Cup body (tapered) -->
    <path d="M28 28 L35 85 C35 87, 40 88, 50 88 C60 88, 65 87, 65 85 L72 28"/>
    <!-- Lid -->
    <path d="M24 24 C24 20, 32 18, 50 18 C68 18, 76 20, 76 24 C76 28, 68 30, 50 30 C32 30, 24 28, 24 24"/>
    <!-- Lid dome top -->
    <ellipse cx="50" cy="22" rx="22" ry="5"/>
    <!-- Straw -->
    <line x1="58" y1="8" x2="54" y2="22"/>
    <line x1="54" y1="22" x2="52" y2="70"/>
    <!-- Straw top opening -->
    <ellipse cx="58" cy="8" rx="3" ry="1.5"/>
    <!-- Cup texture lines -->
    <path d="M32 45 L68 45"/>
    <path d="M34 60 L66 60"/>
  </g>
</svg>
