<svg width="100" height="100" viewBox="0 0 100 100" fill="none" xmlns="http://www.w3.org/2000/svg">
  <!-- Plastic Bottle - SF Symbols Style -->
  <g stroke="currentColor" stroke-width="3" stroke-linecap="round" stroke-linejoin="round" fill="none">
    <!-- Cap -->
    <rect x="42" y="8" width="16" height="10" rx="2"/>
    <!-- Neck -->
    <path d="M44 18 L44 26 L40 32"/>
    <path d="M56 18 L56 26 L60 32"/>
    <!-- Body -->
    <path d="M40 32 C35 35, 32 42, 32 50 L32 78 C32 84, 36 88, 50 88 C64 88, 68 84, 68 78 L68 50 C68 42, 65 35, 60 32"/>
    <!-- Label area lines -->
    <path d="M34 52 L66 52"/>
    <path d="M34 68 L66 68"/>
    <!-- Bottle grip indents -->
    <path d="M32 58 C34 60, 34 62, 32 64"/>
    <path d="M68 58 C66 60, 66 62, 68 64"/>
  </g>
</svg>
